<?xml version="1.0" standalone="no"?>
<!DOCTYPE svg PUBLIC "-//W3C//DTD SVG 20010904//EN"
 "http://www.w3.org/TR/2001/REC-SVG-20010904/DTD/svg10.dtd">
<svg version="1.0" xmlns="http://www.w3.org/2000/svg"
 width="512.000000pt" height="512.000000pt" viewBox="0 0 512.000000 512.000000"
 preserveAspectRatio="xMidYMid meet">
<metadata>
Created by potrace 1.14, written by Peter Selinger 2001-2017
</metadata>
<g transform="translate(0.000000,512.000000) scale(0.100000,-0.100000)"
fill="#000000" stroke="none">
<path d="M112 4199 c-44 -19 -87 -63 -101 -102 -7 -18 -11 -384 -11 -1117 0
-1169 -2 -1128 48 -1183 42 -47 83 -57 230 -57 l139 0 6 -51 c17 -138 131
-265 272 -300 17 -4 -47 -7 -145 -8 -406 -3 -423 -4 -462 -30 -19 -13 -46 -40
-59 -59 -22 -33 -24 -45 -24 -151 0 -106 2 -119 24 -152 14 -19 41 -46 60 -60
l36 -24 2410 -1 c1326 0 2425 3 2443 7 47 10 96 47 118 88 15 28 19 56 19 146
0 101 -2 115 -24 146 -13 19 -40 46 -60 60 l-36 24 -415 2 c-228 2 -469 3
-535 4 -112 0 -117 1 -80 13 150 48 250 167 260 314 1 12 4 24 6 26 2 2 45 6
94 9 118 8 191 22 300 59 254 84 401 208 471 398 13 34 18 86 19 215 4 230
-22 365 -103 535 -24 50 -99 178 -112 190 -3 3 -25 29 -50 59 -37 45 -95 97
-255 229 -38 32 -220 160 -295 207 -308 197 -745 384 -1100 470 -125 30 -229
52 -293 60 -16 2 -40 6 -55 10 -15 3 -47 7 -72 10 -77 8 -164 17 -195 22 -16
2 -571 5 -1233 7 -1111 2 -1206 1 -1240 -15z m1339 -2486 c3 -135 105 -267
242 -314 63 -22 116 -20 -437 -20 -230 1 -422 3 -425 7 -3 3 -1 4 4 3 18 -5
76 13 114 34 96 54 164 150 183 258 l10 59 154 0 154 0 1 -27z m1031 -21 c13
-132 132 -269 257 -297 18 -4 30 -9 28 -12 -7 -7 -898 -6 -903 1 -2 3 -1 4 2
2 11 -8 117 35 152 61 72 54 123 130 138 209 5 21 9 42 10 47 1 4 2 14 3 22 1
13 25 15 155 15 l153 0 5 -48z m1031 -3 c9 -71 46 -146 100 -200 45 -45 114
-89 140 -89 7 0 21 -6 30 -12 14 -11 -71 -13 -437 -13 -250 0 -452 3 -450 6 2
4 19 10 38 13 126 24 247 167 262 309 1 9 2 22 3 27 1 6 60 10 155 10 l153 0
6 -51z"/>
</g>
</svg>
